<svg width="121" height="24" viewBox="0 0 121 24" fill="none" xmlns="http://www.w3.org/2000/svg">
<path d="M15.0967 10L13.6267 5.16001C13.3367 4.21001 11.9967 4.21001 11.7167 5.16001L10.2367 10H5.78671C4.81671 10 4.41671 11.25 5.20671 11.81L8.84671 14.41L7.41671 19.02C7.12671 19.95 8.20671 20.7 8.97671 20.11L12.6667 17.31L16.3567 20.12C17.1267 20.71 18.2067 19.96 17.9167 19.03L16.4867 14.42L20.1267 11.82C20.9167 11.25 20.5167 10.01 19.5467 10.01H15.0967V10Z" fill="#FFA52F"/>
<path d="M39.0967 10L37.6267 5.16001C37.3367 4.21001 35.9967 4.21001 35.7167 5.16001L34.2367 10H29.7867C28.8167 10 28.4167 11.25 29.2067 11.81L32.8467 14.41L31.4167 19.02C31.1267 19.95 32.2067 20.7 32.9767 20.11L36.6667 17.31L40.3567 20.12C41.1267 20.71 42.2067 19.96 41.9167 19.03L40.4867 14.42L44.1267 11.82C44.9167 11.25 44.5167 10.01 43.5467 10.01H39.0967V10Z" fill="#FFA52F"/>
<path d="M63.0967 10L61.6267 5.16001C61.3367 4.21001 59.9967 4.21001 59.7167 5.16001L58.2367 10H53.7867C52.8167 10 52.4167 11.25 53.2067 11.81L56.8467 14.41L55.4167 19.02C55.1267 19.95 56.2067 20.7 56.9767 20.11L60.6667 17.31L64.3567 20.12C65.1267 20.71 66.2067 19.96 65.9167 19.03L64.4867 14.42L68.1267 11.82C68.9167 11.25 68.5167 10.01 67.5467 10.01H63.0967V10Z" fill="#FFA52F"/>
<path d="M87.0967 10L85.6267 5.16001C85.3367 4.21001 83.9967 4.21001 83.7167 5.16001L82.2367 10H77.7867C76.8167 10 76.4167 11.25 77.2067 11.81L80.8467 14.41L79.4167 19.02C79.1267 19.95 80.2067 20.7 80.9767 20.11L84.6667 17.31L88.3567 20.12C89.1267 20.71 90.2067 19.96 89.9167 19.03L88.4867 14.42L92.1267 11.82C92.9167 11.25 92.5167 10.01 91.5467 10.01H87.0967V10Z" fill="#FFA52F"/>
<path d="M111.097 10L109.627 5.16001C109.337 4.21001 107.997 4.21001 107.717 5.16001L106.237 10H101.787C100.817 10 100.417 11.25 101.207 11.81L104.847 14.41L103.417 19.02C103.127 19.95 104.207 20.7 104.977 20.11L108.667 17.31L112.357 20.12C113.127 20.71 114.207 19.96 113.917 19.03L112.487 14.42L116.127 11.82C116.917 11.25 116.517 10.01 115.547 10.01H111.097V10Z" fill="#FFA52F"/>
</svg>
