<svg width="366" height="24" viewBox="0 0 366 24" fill="none" xmlns="http://www.w3.org/2000/svg">
<path d="M15.0967 10L13.6267 5.16001C13.3367 4.21001 11.9967 4.21001 11.7167 5.16001L10.2367 10H5.78671C4.81671 10 4.41671 11.25 5.20671 11.81L8.84671 14.41L7.41671 19.02C7.12671 19.95 8.20671 20.7 8.97671 20.11L12.6667 17.31L16.3567 20.12C17.1267 20.71 18.2067 19.96 17.9167 19.03L16.4867 14.42L20.1267 11.82C20.9167 11.25 20.5167 10.01 19.5467 10.01H15.0967V10Z" fill="#FFA52F"/>
<path d="M39.0967 10L37.6267 5.16001C37.3367 4.21001 35.9967 4.21001 35.7167 5.16001L34.2367 10H29.7867C28.8167 10 28.4167 11.25 29.2067 11.81L32.8467 14.41L31.4167 19.02C31.1267 19.95 32.2067 20.7 32.9767 20.11L36.6667 17.31L40.3567 20.12C41.1267 20.71 42.2067 19.96 41.9167 19.03L40.4867 14.42L44.1267 11.82C44.9167 11.25 44.5167 10.01 43.5467 10.01H39.0967V10Z" fill="#FFA52F"/>
<path d="M63.0967 10L61.6267 5.16001C61.3367 4.21001 59.9967 4.21001 59.7167 5.16001L58.2367 10H53.7867C52.8167 10 52.4167 11.25 53.2067 11.81L56.8467 14.41L55.4167 19.02C55.1267 19.95 56.2067 20.7 56.9767 20.11L60.6667 17.31L64.3567 20.12C65.1267 20.71 66.2067 19.96 65.9167 19.03L64.4867 14.42L68.1267 11.82C68.9167 11.25 68.5167 10.01 67.5467 10.01H63.0967V10Z" fill="#FFA52F"/>
<path d="M87.0967 10L85.6267 5.16001C85.3367 4.21001 83.9967 4.21001 83.7167 5.16001L82.2367 10H77.7867C76.8167 10 76.4167 11.25 77.2067 11.81L80.8467 14.41L79.4167 19.02C79.1267 19.95 80.2067 20.7 80.9767 20.11L84.6667 17.31L88.3567 20.12C89.1267 20.71 90.2067 19.96 89.9167 19.03L88.4867 14.42L92.1267 11.82C92.9167 11.25 92.5167 10.01 91.5467 10.01H87.0967V10Z" fill="#FFA52F"/>
<path d="M111.097 10L109.627 5.16001C109.337 4.21001 107.997 4.21001 107.717 5.16001L106.237 10H101.787C100.817 10 100.417 11.25 101.207 11.81L104.847 14.41L103.417 19.02C103.127 19.95 104.207 20.7 104.977 20.11L108.667 17.31L112.357 20.12C113.127 20.71 114.207 19.96 113.917 19.03L112.487 14.42L116.127 11.82C116.917 11.25 116.517 10.01 115.547 10.01H111.097V10Z" fill="#FFA52F"/>
<path d="M129.269 10.8594C130.003 10.8594 130.649 10.9922 131.206 11.2578C131.769 11.5182 132.206 11.9036 132.519 12.4141C132.831 12.9193 132.987 13.5391 132.987 14.2734C132.987 15.0755 132.818 15.7682 132.479 16.3516C132.141 16.9297 131.644 17.375 130.987 17.6875C130.331 18 129.532 18.1562 128.589 18.1562C127.99 18.1562 127.43 18.1042 126.909 18C126.394 17.8958 125.948 17.7396 125.573 17.5312V15.875C125.964 16.0938 126.433 16.2734 126.979 16.4141C127.526 16.5495 128.05 16.6172 128.55 16.6172C129.081 16.6172 129.537 16.5391 129.917 16.3828C130.297 16.2266 130.589 15.987 130.792 15.6641C131 15.3411 131.104 14.9323 131.104 14.4375C131.104 13.7812 130.894 13.276 130.472 12.9219C130.055 12.5625 129.401 12.3828 128.511 12.3828C128.198 12.3828 127.865 12.4115 127.511 12.4688C127.162 12.5208 126.87 12.5781 126.636 12.6406L125.831 12.1641L126.261 6.57812H132.198V8.19531H127.878L127.628 11.0391C127.815 10.9974 128.039 10.9583 128.3 10.9219C128.56 10.8802 128.883 10.8594 129.269 10.8594ZM134.87 17.0312C134.87 16.6042 134.979 16.3047 135.198 16.1328C135.422 15.9557 135.693 15.8672 136.011 15.8672C136.328 15.8672 136.599 15.9557 136.823 16.1328C137.052 16.3047 137.167 16.6042 137.167 17.0312C137.167 17.4479 137.052 17.75 136.823 17.9375C136.599 18.1198 136.328 18.2109 136.011 18.2109C135.693 18.2109 135.422 18.1198 135.198 17.9375C134.979 17.75 134.87 17.4479 134.87 17.0312ZM146.667 12.2812C146.667 13.2031 146.594 14.0286 146.448 14.7578C146.308 15.4818 146.084 16.0964 145.776 16.6016C145.469 17.1068 145.068 17.4922 144.573 17.7578C144.078 18.0234 143.479 18.1562 142.776 18.1562C141.896 18.1562 141.17 17.9245 140.597 17.4609C140.024 16.9922 139.599 16.3203 139.323 15.4453C139.047 14.5651 138.909 13.5104 138.909 12.2812C138.909 11.0521 139.034 10 139.284 9.125C139.539 8.24479 139.951 7.57031 140.519 7.10156C141.086 6.63281 141.839 6.39844 142.776 6.39844C143.662 6.39844 144.391 6.63281 144.964 7.10156C145.542 7.5651 145.969 8.23698 146.245 9.11719C146.526 9.99219 146.667 11.0469 146.667 12.2812ZM140.761 12.2812C140.761 13.2448 140.823 14.0495 140.948 14.6953C141.078 15.3411 141.292 15.8255 141.589 16.1484C141.886 16.4661 142.282 16.625 142.776 16.625C143.271 16.625 143.667 16.4661 143.964 16.1484C144.261 15.8307 144.474 15.349 144.604 14.7031C144.74 14.0573 144.808 13.25 144.808 12.2812C144.808 11.3229 144.743 10.5208 144.612 9.875C144.482 9.22917 144.269 8.74479 143.972 8.42188C143.675 8.09375 143.276 7.92969 142.776 7.92969C142.276 7.92969 141.878 8.09375 141.581 8.42188C141.289 8.74479 141.078 9.22917 140.948 9.875C140.823 10.5208 140.761 11.3229 140.761 12.2812Z" fill="#232321"/>
</svg>
